<mxfile host="65bd71144e">
    <diagram id="CWb_n4CAjd2z9gFYFfTj" name="Refactor">
        <mxGraphModel dx="1044" dy="353" grid="0" gridSize="10" guides="1" tooltips="1" connect="1" arrows="1" fold="1" page="1" pageScale="1" pageWidth="1169" pageHeight="827" math="0" shadow="0">
            <root>
                <mxCell id="0"/>
                <mxCell id="1" parent="0"/>
                <mxCell id="zH9yEyfcCZAy-cP3OPAp-57" value="Elevation" style="swimlane;fontStyle=1;align=center;verticalAlign=top;childLayout=stackLayout;horizontal=1;startSize=26;horizontalStack=0;resizeParent=1;resizeParentMax=0;resizeLast=0;collapsible=1;marginBottom=0;" parent="1" vertex="1">
                    <mxGeometry x="683" y="17" width="210" height="164" as="geometry"/>
                </mxCell>
                <mxCell id="zH9yEyfcCZAy-cP3OPAp-58" value="+ field: type" style="text;strokeColor=none;fillColor=none;align=left;verticalAlign=top;spacingLeft=4;spacingRight=4;overflow=hidden;rotatable=0;points=[[0,0.5],[1,0.5]];portConstraint=eastwest;" parent="zH9yEyfcCZAy-cP3OPAp-57" vertex="1">
                    <mxGeometry y="26" width="210" height="26" as="geometry"/>
                </mxCell>
                <mxCell id="zH9yEyfcCZAy-cP3OPAp-59" value="" style="line;strokeWidth=1;fillColor=none;align=left;verticalAlign=middle;spacingTop=-1;spacingLeft=3;spacingRight=3;rotatable=0;labelPosition=right;points=[];portConstraint=eastwest;strokeColor=inherit;" parent="zH9yEyfcCZAy-cP3OPAp-57" vertex="1">
                    <mxGeometry y="52" width="210" height="8" as="geometry"/>
                </mxCell>
                <mxCell id="zH9yEyfcCZAy-cP3OPAp-83" value="+ setSliderForWaterRise(type): type" style="text;strokeColor=none;fillColor=none;align=left;verticalAlign=top;spacingLeft=4;spacingRight=4;overflow=hidden;rotatable=0;points=[[0,0.5],[1,0.5]];portConstraint=eastwest;" parent="zH9yEyfcCZAy-cP3OPAp-57" vertex="1">
                    <mxGeometry y="60" width="210" height="26" as="geometry"/>
                </mxCell>
                <mxCell id="zH9yEyfcCZAy-cP3OPAp-82" value="+ updateSliderForWaterRise(type): type" style="text;strokeColor=none;fillColor=none;align=left;verticalAlign=top;spacingLeft=4;spacingRight=4;overflow=hidden;rotatable=0;points=[[0,0.5],[1,0.5]];portConstraint=eastwest;" parent="zH9yEyfcCZAy-cP3OPAp-57" vertex="1">
                    <mxGeometry y="86" width="210" height="26" as="geometry"/>
                </mxCell>
                <mxCell id="z0Jqj_uq5-GdilpMSnM8-4" value="+ execute(): type" style="text;strokeColor=none;fillColor=none;align=left;verticalAlign=top;spacingLeft=4;spacingRight=4;overflow=hidden;rotatable=0;points=[[0,0.5],[1,0.5]];portConstraint=eastwest;" vertex="1" parent="zH9yEyfcCZAy-cP3OPAp-57">
                    <mxGeometry y="112" width="210" height="26" as="geometry"/>
                </mxCell>
                <mxCell id="zH9yEyfcCZAy-cP3OPAp-84" value="+ sliderForWaterRise(type): type" style="text;strokeColor=none;fillColor=none;align=left;verticalAlign=top;spacingLeft=4;spacingRight=4;overflow=hidden;rotatable=0;points=[[0,0.5],[1,0.5]];portConstraint=eastwest;" parent="zH9yEyfcCZAy-cP3OPAp-57" vertex="1">
                    <mxGeometry y="138" width="210" height="26" as="geometry"/>
                </mxCell>
                <mxCell id="zH9yEyfcCZAy-cP3OPAp-61" value="ContourLines" style="swimlane;fontStyle=1;align=center;verticalAlign=top;childLayout=stackLayout;horizontal=1;startSize=26;horizontalStack=0;resizeParent=1;resizeParentMax=0;resizeLast=0;collapsible=1;marginBottom=0;" parent="1" vertex="1">
                    <mxGeometry x="442" y="17" width="209" height="164" as="geometry"/>
                </mxCell>
                <mxCell id="zH9yEyfcCZAy-cP3OPAp-62" value="+ field: type" style="text;strokeColor=none;fillColor=none;align=left;verticalAlign=top;spacingLeft=4;spacingRight=4;overflow=hidden;rotatable=0;points=[[0,0.5],[1,0.5]];portConstraint=eastwest;" parent="zH9yEyfcCZAy-cP3OPAp-61" vertex="1">
                    <mxGeometry y="26" width="209" height="26" as="geometry"/>
                </mxCell>
                <mxCell id="zH9yEyfcCZAy-cP3OPAp-63" value="" style="line;strokeWidth=1;fillColor=none;align=left;verticalAlign=middle;spacingTop=-1;spacingLeft=3;spacingRight=3;rotatable=0;labelPosition=right;points=[];portConstraint=eastwest;strokeColor=inherit;" parent="zH9yEyfcCZAy-cP3OPAp-61" vertex="1">
                    <mxGeometry y="52" width="209" height="8" as="geometry"/>
                </mxCell>
                <mxCell id="zH9yEyfcCZAy-cP3OPAp-76" value="+ svgZoomStyle(type): type" style="text;strokeColor=none;fillColor=none;align=left;verticalAlign=top;spacingLeft=4;spacingRight=4;overflow=hidden;rotatable=0;points=[[0,0.5],[1,0.5]];portConstraint=eastwest;" parent="zH9yEyfcCZAy-cP3OPAp-61" vertex="1">
                    <mxGeometry y="60" width="209" height="26" as="geometry"/>
                </mxCell>
                <mxCell id="zH9yEyfcCZAy-cP3OPAp-85" value="+ calculateRectangleArea(type): type" style="text;strokeColor=none;fillColor=none;align=left;verticalAlign=top;spacingLeft=4;spacingRight=4;overflow=hidden;rotatable=0;points=[[0,0.5],[1,0.5]];portConstraint=eastwest;" parent="zH9yEyfcCZAy-cP3OPAp-61" vertex="1">
                    <mxGeometry y="86" width="209" height="26" as="geometry"/>
                </mxCell>
                <mxCell id="z0Jqj_uq5-GdilpMSnM8-5" value="+ execute(): type" style="text;strokeColor=none;fillColor=none;align=left;verticalAlign=top;spacingLeft=4;spacingRight=4;overflow=hidden;rotatable=0;points=[[0,0.5],[1,0.5]];portConstraint=eastwest;" vertex="1" parent="zH9yEyfcCZAy-cP3OPAp-61">
                    <mxGeometry y="112" width="209" height="26" as="geometry"/>
                </mxCell>
                <mxCell id="zH9yEyfcCZAy-cP3OPAp-86" value="+ checkRectangleArea(type): type" style="text;strokeColor=none;fillColor=none;align=left;verticalAlign=top;spacingLeft=4;spacingRight=4;overflow=hidden;rotatable=0;points=[[0,0.5],[1,0.5]];portConstraint=eastwest;" parent="zH9yEyfcCZAy-cP3OPAp-61" vertex="1">
                    <mxGeometry y="138" width="209" height="26" as="geometry"/>
                </mxCell>
                <mxCell id="zH9yEyfcCZAy-cP3OPAp-65" value="Buffer" style="swimlane;fontStyle=1;align=center;verticalAlign=top;childLayout=stackLayout;horizontal=1;startSize=26;horizontalStack=0;resizeParent=1;resizeParentMax=0;resizeLast=0;collapsible=1;marginBottom=0;" parent="1" vertex="1">
                    <mxGeometry x="920" y="17" width="200" height="138" as="geometry"/>
                </mxCell>
                <mxCell id="zH9yEyfcCZAy-cP3OPAp-66" value="+ field: type" style="text;strokeColor=none;fillColor=none;align=left;verticalAlign=top;spacingLeft=4;spacingRight=4;overflow=hidden;rotatable=0;points=[[0,0.5],[1,0.5]];portConstraint=eastwest;" parent="zH9yEyfcCZAy-cP3OPAp-65" vertex="1">
                    <mxGeometry y="26" width="200" height="26" as="geometry"/>
                </mxCell>
                <mxCell id="zH9yEyfcCZAy-cP3OPAp-67" value="" style="line;strokeWidth=1;fillColor=none;align=left;verticalAlign=middle;spacingTop=-1;spacingLeft=3;spacingRight=3;rotatable=0;labelPosition=right;points=[];portConstraint=eastwest;strokeColor=inherit;" parent="zH9yEyfcCZAy-cP3OPAp-65" vertex="1">
                    <mxGeometry y="52" width="200" height="8" as="geometry"/>
                </mxCell>
                <mxCell id="zH9yEyfcCZAy-cP3OPAp-87" value="+ checkLayersForBuffer(type): type" style="text;strokeColor=none;fillColor=none;align=left;verticalAlign=top;spacingLeft=4;spacingRight=4;overflow=hidden;rotatable=0;points=[[0,0.5],[1,0.5]];portConstraint=eastwest;" parent="zH9yEyfcCZAy-cP3OPAp-65" vertex="1">
                    <mxGeometry y="60" width="200" height="26" as="geometry"/>
                </mxCell>
                <mxCell id="z0Jqj_uq5-GdilpMSnM8-3" value="+ execute(): type" style="text;strokeColor=none;fillColor=none;align=left;verticalAlign=top;spacingLeft=4;spacingRight=4;overflow=hidden;rotatable=0;points=[[0,0.5],[1,0.5]];portConstraint=eastwest;" vertex="1" parent="zH9yEyfcCZAy-cP3OPAp-65">
                    <mxGeometry y="86" width="200" height="26" as="geometry"/>
                </mxCell>
                <mxCell id="zH9yEyfcCZAy-cP3OPAp-90" value="+ executeBuffer(type): type" style="text;strokeColor=none;fillColor=none;align=left;verticalAlign=top;spacingLeft=4;spacingRight=4;overflow=hidden;rotatable=0;points=[[0,0.5],[1,0.5]];portConstraint=eastwest;" parent="zH9yEyfcCZAy-cP3OPAp-65" vertex="1">
                    <mxGeometry y="112" width="200" height="26" as="geometry"/>
                </mxCell>
                <mxCell id="zH9yEyfcCZAy-cP3OPAp-69" value="ElevationProfile" style="swimlane;fontStyle=1;align=center;verticalAlign=top;childLayout=stackLayout;horizontal=1;startSize=26;horizontalStack=0;resizeParent=1;resizeParentMax=0;resizeLast=0;collapsible=1;marginBottom=0;" parent="1" vertex="1">
                    <mxGeometry x="442" y="199" width="198" height="138" as="geometry"/>
                </mxCell>
                <mxCell id="zH9yEyfcCZAy-cP3OPAp-70" value="+ field: type" style="text;strokeColor=none;fillColor=none;align=left;verticalAlign=top;spacingLeft=4;spacingRight=4;overflow=hidden;rotatable=0;points=[[0,0.5],[1,0.5]];portConstraint=eastwest;" parent="zH9yEyfcCZAy-cP3OPAp-69" vertex="1">
                    <mxGeometry y="26" width="198" height="26" as="geometry"/>
                </mxCell>
                <mxCell id="zH9yEyfcCZAy-cP3OPAp-71" value="" style="line;strokeWidth=1;fillColor=none;align=left;verticalAlign=middle;spacingTop=-1;spacingLeft=3;spacingRight=3;rotatable=0;labelPosition=right;points=[];portConstraint=eastwest;strokeColor=inherit;" parent="zH9yEyfcCZAy-cP3OPAp-69" vertex="1">
                    <mxGeometry y="52" width="198" height="8" as="geometry"/>
                </mxCell>
                <mxCell id="zH9yEyfcCZAy-cP3OPAp-94" value="+ execute(): type" style="text;strokeColor=none;fillColor=none;align=left;verticalAlign=top;spacingLeft=4;spacingRight=4;overflow=hidden;rotatable=0;points=[[0,0.5],[1,0.5]];portConstraint=eastwest;" parent="zH9yEyfcCZAy-cP3OPAp-69" vertex="1">
                    <mxGeometry y="60" width="198" height="26" as="geometry"/>
                </mxCell>
                <mxCell id="z0Jqj_uq5-GdilpMSnM8-1" value="+ display(): type" style="text;strokeColor=none;fillColor=none;align=left;verticalAlign=top;spacingLeft=4;spacingRight=4;overflow=hidden;rotatable=0;points=[[0,0.5],[1,0.5]];portConstraint=eastwest;" vertex="1" parent="zH9yEyfcCZAy-cP3OPAp-69">
                    <mxGeometry y="86" width="198" height="26" as="geometry"/>
                </mxCell>
                <mxCell id="z0Jqj_uq5-GdilpMSnM8-2" value="+ getForm(): type" style="text;strokeColor=none;fillColor=none;align=left;verticalAlign=top;spacingLeft=4;spacingRight=4;overflow=hidden;rotatable=0;points=[[0,0.5],[1,0.5]];portConstraint=eastwest;" vertex="1" parent="zH9yEyfcCZAy-cP3OPAp-69">
                    <mxGeometry y="112" width="198" height="26" as="geometry"/>
                </mxCell>
                <mxCell id="zH9yEyfcCZAy-cP3OPAp-73" value="Geoprocess" style="swimlane;fontStyle=1;align=center;verticalAlign=top;childLayout=stackLayout;horizontal=1;startSize=26;horizontalStack=0;resizeParent=1;resizeParentMax=0;resizeLast=0;collapsible=1;marginBottom=0;" parent="1" vertex="1">
                    <mxGeometry x="86" y="17" width="300" height="372" as="geometry"/>
                </mxCell>
                <mxCell id="zH9yEyfcCZAy-cP3OPAp-74" value="+ field: type" style="text;strokeColor=none;fillColor=none;align=left;verticalAlign=top;spacingLeft=4;spacingRight=4;overflow=hidden;rotatable=0;points=[[0,0.5],[1,0.5]];portConstraint=eastwest;" parent="zH9yEyfcCZAy-cP3OPAp-73" vertex="1">
                    <mxGeometry y="26" width="300" height="26" as="geometry"/>
                </mxCell>
                <mxCell id="zH9yEyfcCZAy-cP3OPAp-75" value="" style="line;strokeWidth=1;fillColor=none;align=left;verticalAlign=middle;spacingTop=-1;spacingLeft=3;spacingRight=3;rotatable=0;labelPosition=right;points=[];portConstraint=eastwest;strokeColor=inherit;" parent="zH9yEyfcCZAy-cP3OPAp-73" vertex="1">
                    <mxGeometry y="52" width="300" height="8" as="geometry"/>
                </mxCell>
                <mxCell id="zH9yEyfcCZAy-cP3OPAp-77" value="+ createIcon(type): type" style="text;strokeColor=none;fillColor=none;align=left;verticalAlign=top;spacingLeft=4;spacingRight=4;overflow=hidden;rotatable=0;points=[[0,0.5],[1,0.5]];portConstraint=eastwest;" parent="zH9yEyfcCZAy-cP3OPAp-73" vertex="1">
                    <mxGeometry y="60" width="300" height="26" as="geometry"/>
                </mxCell>
                <mxCell id="zH9yEyfcCZAy-cP3OPAp-79" value="+ setAvailableGeoprocessingConfig(type): type" style="text;strokeColor=none;fillColor=none;align=left;verticalAlign=top;spacingLeft=4;spacingRight=4;overflow=hidden;rotatable=0;points=[[0,0.5],[1,0.5]];portConstraint=eastwest;" parent="zH9yEyfcCZAy-cP3OPAp-73" vertex="1">
                    <mxGeometry y="86" width="300" height="26" as="geometry"/>
                </mxCell>
                <mxCell id="zH9yEyfcCZAy-cP3OPAp-78" value="+ createModal(type): type" style="text;strokeColor=none;fillColor=none;align=left;verticalAlign=top;spacingLeft=4;spacingRight=4;overflow=hidden;rotatable=0;points=[[0,0.5],[1,0.5]];portConstraint=eastwest;" parent="zH9yEyfcCZAy-cP3OPAp-73" vertex="1">
                    <mxGeometry y="112" width="300" height="26" as="geometry"/>
                </mxCell>
                <mxCell id="zH9yEyfcCZAy-cP3OPAp-80" value="+ displayResult(type): type" style="text;strokeColor=none;fillColor=none;align=left;verticalAlign=top;spacingLeft=4;spacingRight=4;overflow=hidden;rotatable=0;points=[[0,0.5],[1,0.5]];portConstraint=eastwest;" parent="zH9yEyfcCZAy-cP3OPAp-73" vertex="1">
                    <mxGeometry y="138" width="300" height="26" as="geometry"/>
                </mxCell>
                <mxCell id="zH9yEyfcCZAy-cP3OPAp-81" value="+ updateReferencedDrawedLayers(type): type" style="text;strokeColor=none;fillColor=none;align=left;verticalAlign=top;spacingLeft=4;spacingRight=4;overflow=hidden;rotatable=0;points=[[0,0.5],[1,0.5]];portConstraint=eastwest;" parent="zH9yEyfcCZAy-cP3OPAp-73" vertex="1">
                    <mxGeometry y="164" width="300" height="26" as="geometry"/>
                </mxCell>
                <mxCell id="zH9yEyfcCZAy-cP3OPAp-88" value="+ buildOptionFormMessages(type): type" style="text;strokeColor=none;fillColor=none;align=left;verticalAlign=top;spacingLeft=4;spacingRight=4;overflow=hidden;rotatable=0;points=[[0,0.5],[1,0.5]];portConstraint=eastwest;" parent="zH9yEyfcCZAy-cP3OPAp-73" vertex="1">
                    <mxGeometry y="190" width="300" height="26" as="geometry"/>
                </mxCell>
                <mxCell id="z0Jqj_uq5-GdilpMSnM8-6" value="+ execute(): type" style="text;strokeColor=none;fillColor=none;align=left;verticalAlign=top;spacingLeft=4;spacingRight=4;overflow=hidden;rotatable=0;points=[[0,0.5],[1,0.5]];portConstraint=eastwest;" vertex="1" parent="zH9yEyfcCZAy-cP3OPAp-73">
                    <mxGeometry y="216" width="300" height="26" as="geometry"/>
                </mxCell>
                <mxCell id="zH9yEyfcCZAy-cP3OPAp-89" value="+ buildOptionForm(type): type" style="text;strokeColor=none;fillColor=none;align=left;verticalAlign=top;spacingLeft=4;spacingRight=4;overflow=hidden;rotatable=0;points=[[0,0.5],[1,0.5]];portConstraint=eastwest;" parent="zH9yEyfcCZAy-cP3OPAp-73" vertex="1">
                    <mxGeometry y="242" width="300" height="26" as="geometry"/>
                </mxCell>
                <mxCell id="zH9yEyfcCZAy-cP3OPAp-92" value="+ buildForm(type): type" style="text;strokeColor=none;fillColor=none;align=left;verticalAlign=top;spacingLeft=4;spacingRight=4;overflow=hidden;rotatable=0;points=[[0,0.5],[1,0.5]];portConstraint=eastwest;" parent="zH9yEyfcCZAy-cP3OPAp-73" vertex="1">
                    <mxGeometry y="268" width="300" height="26" as="geometry"/>
                </mxCell>
                <mxCell id="zH9yEyfcCZAy-cP3OPAp-93" value="+ getForm(type): type" style="text;strokeColor=none;fillColor=none;align=left;verticalAlign=top;spacingLeft=4;spacingRight=4;overflow=hidden;rotatable=0;points=[[0,0.5],[1,0.5]];portConstraint=eastwest;" parent="zH9yEyfcCZAy-cP3OPAp-73" vertex="1">
                    <mxGeometry y="294" width="300" height="26" as="geometry"/>
                </mxCell>
                <mxCell id="zH9yEyfcCZAy-cP3OPAp-95" value="+ loadingBtn(type): type" style="text;strokeColor=none;fillColor=none;align=left;verticalAlign=top;spacingLeft=4;spacingRight=4;overflow=hidden;rotatable=0;points=[[0,0.5],[1,0.5]];portConstraint=eastwest;" parent="zH9yEyfcCZAy-cP3OPAp-73" vertex="1">
                    <mxGeometry y="320" width="300" height="26" as="geometry"/>
                </mxCell>
                <mxCell id="zH9yEyfcCZAy-cP3OPAp-96" value="+ updateLayerSelect(type): type" style="text;strokeColor=none;fillColor=none;align=left;verticalAlign=top;spacingLeft=4;spacingRight=4;overflow=hidden;rotatable=0;points=[[0,0.5],[1,0.5]];portConstraint=eastwest;" parent="zH9yEyfcCZAy-cP3OPAp-73" vertex="1">
                    <mxGeometry y="346" width="300" height="26" as="geometry"/>
                </mxCell>
            </root>
        </mxGraphModel>
    </diagram>
    <diagram id="9buAv9uHo4CewKqJzlxB" name="Original">
        <mxGraphModel dx="832" dy="353" grid="1" gridSize="10" guides="1" tooltips="1" connect="1" arrows="1" fold="1" page="1" pageScale="1" pageWidth="827" pageHeight="1169" math="0" shadow="0">
            <root>
                <mxCell id="5ee6ZNDq-BOsnMpL46Sq-0"/>
                <mxCell id="5ee6ZNDq-BOsnMpL46Sq-1" parent="5ee6ZNDq-BOsnMpL46Sq-0"/>
                <mxCell id="V0HAKdZt5HSDC3kejw7x-1" value="Geoprocessing" style="swimlane;fontStyle=1;align=center;verticalAlign=top;childLayout=stackLayout;horizontal=1;startSize=26;horizontalStack=0;resizeParent=1;resizeParentMax=0;resizeLast=0;collapsible=1;marginBottom=0;strokeColor=#B0B0B0;fontColor=#B0B0B0;" vertex="1" parent="5ee6ZNDq-BOsnMpL46Sq-1">
                    <mxGeometry x="80" y="10" width="300" height="606" as="geometry"/>
                </mxCell>
                <mxCell id="V0HAKdZt5HSDC3kejw7x-2" value="+ field: type" style="text;strokeColor=none;fillColor=none;align=left;verticalAlign=top;spacingLeft=4;spacingRight=4;overflow=hidden;rotatable=0;points=[[0,0.5],[1,0.5]];portConstraint=eastwest;" vertex="1" parent="V0HAKdZt5HSDC3kejw7x-1">
                    <mxGeometry y="26" width="300" height="26" as="geometry"/>
                </mxCell>
                <mxCell id="V0HAKdZt5HSDC3kejw7x-3" value="" style="line;strokeWidth=1;fillColor=none;align=left;verticalAlign=middle;spacingTop=-1;spacingLeft=3;spacingRight=3;rotatable=0;labelPosition=right;points=[];portConstraint=eastwest;strokeColor=inherit;" vertex="1" parent="V0HAKdZt5HSDC3kejw7x-1">
                    <mxGeometry y="52" width="300" height="8" as="geometry"/>
                </mxCell>
                <mxCell id="V0HAKdZt5HSDC3kejw7x-4" value="+ svgZoomStyle(type): type" style="text;strokeColor=none;fillColor=none;align=left;verticalAlign=top;spacingLeft=4;spacingRight=4;overflow=hidden;rotatable=0;points=[[0,0.5],[1,0.5]];portConstraint=eastwest;" vertex="1" parent="V0HAKdZt5HSDC3kejw7x-1">
                    <mxGeometry y="60" width="300" height="26" as="geometry"/>
                </mxCell>
                <mxCell id="V0HAKdZt5HSDC3kejw7x-5" value="+ createIcon(type): type" style="text;strokeColor=none;fillColor=none;align=left;verticalAlign=top;spacingLeft=4;spacingRight=4;overflow=hidden;rotatable=0;points=[[0,0.5],[1,0.5]];portConstraint=eastwest;" vertex="1" parent="V0HAKdZt5HSDC3kejw7x-1">
                    <mxGeometry y="86" width="300" height="26" as="geometry"/>
                </mxCell>
                <mxCell id="V0HAKdZt5HSDC3kejw7x-6" value="+ createModal(type): type" style="text;strokeColor=none;fillColor=none;align=left;verticalAlign=top;spacingLeft=4;spacingRight=4;overflow=hidden;rotatable=0;points=[[0,0.5],[1,0.5]];portConstraint=eastwest;" vertex="1" parent="V0HAKdZt5HSDC3kejw7x-1">
                    <mxGeometry y="112" width="300" height="26" as="geometry"/>
                </mxCell>
                <mxCell id="V0HAKdZt5HSDC3kejw7x-7" value="+ setAvailableGeoprocessingConfig(type): type" style="text;strokeColor=none;fillColor=none;align=left;verticalAlign=top;spacingLeft=4;spacingRight=4;overflow=hidden;rotatable=0;points=[[0,0.5],[1,0.5]];portConstraint=eastwest;" vertex="1" parent="V0HAKdZt5HSDC3kejw7x-1">
                    <mxGeometry y="138" width="300" height="26" as="geometry"/>
                </mxCell>
                <mxCell id="V0HAKdZt5HSDC3kejw7x-8" value="+ displayResult(type): type" style="text;strokeColor=none;fillColor=none;align=left;verticalAlign=top;spacingLeft=4;spacingRight=4;overflow=hidden;rotatable=0;points=[[0,0.5],[1,0.5]];portConstraint=eastwest;" vertex="1" parent="V0HAKdZt5HSDC3kejw7x-1">
                    <mxGeometry y="164" width="300" height="26" as="geometry"/>
                </mxCell>
                <mxCell id="V0HAKdZt5HSDC3kejw7x-9" value="+ updateReferencedDrawedLayers(type): type" style="text;strokeColor=none;fillColor=none;align=left;verticalAlign=top;spacingLeft=4;spacingRight=4;overflow=hidden;rotatable=0;points=[[0,0.5],[1,0.5]];portConstraint=eastwest;" vertex="1" parent="V0HAKdZt5HSDC3kejw7x-1">
                    <mxGeometry y="190" width="300" height="26" as="geometry"/>
                </mxCell>
                <mxCell id="V0HAKdZt5HSDC3kejw7x-10" value="+ updateSliderForWaterRise(type): type" style="text;strokeColor=none;fillColor=none;align=left;verticalAlign=top;spacingLeft=4;spacingRight=4;overflow=hidden;rotatable=0;points=[[0,0.5],[1,0.5]];portConstraint=eastwest;" vertex="1" parent="V0HAKdZt5HSDC3kejw7x-1">
                    <mxGeometry y="216" width="300" height="26" as="geometry"/>
                </mxCell>
                <mxCell id="V0HAKdZt5HSDC3kejw7x-11" value="+ setSliderForWaterRise(type): type" style="text;strokeColor=none;fillColor=none;align=left;verticalAlign=top;spacingLeft=4;spacingRight=4;overflow=hidden;rotatable=0;points=[[0,0.5],[1,0.5]];portConstraint=eastwest;" vertex="1" parent="V0HAKdZt5HSDC3kejw7x-1">
                    <mxGeometry y="242" width="300" height="26" as="geometry"/>
                </mxCell>
                <mxCell id="V0HAKdZt5HSDC3kejw7x-12" value="+ sliderForWaterRise(type): type" style="text;strokeColor=none;fillColor=none;align=left;verticalAlign=top;spacingLeft=4;spacingRight=4;overflow=hidden;rotatable=0;points=[[0,0.5],[1,0.5]];portConstraint=eastwest;" vertex="1" parent="V0HAKdZt5HSDC3kejw7x-1">
                    <mxGeometry y="268" width="300" height="26" as="geometry"/>
                </mxCell>
                <mxCell id="V0HAKdZt5HSDC3kejw7x-13" value="+ calculateRectangleArea(type): type" style="text;strokeColor=none;fillColor=none;align=left;verticalAlign=top;spacingLeft=4;spacingRight=4;overflow=hidden;rotatable=0;points=[[0,0.5],[1,0.5]];portConstraint=eastwest;" vertex="1" parent="V0HAKdZt5HSDC3kejw7x-1">
                    <mxGeometry y="294" width="300" height="26" as="geometry"/>
                </mxCell>
                <mxCell id="V0HAKdZt5HSDC3kejw7x-14" value="+ checkRectangleArea(type): type" style="text;strokeColor=none;fillColor=none;align=left;verticalAlign=top;spacingLeft=4;spacingRight=4;overflow=hidden;rotatable=0;points=[[0,0.5],[1,0.5]];portConstraint=eastwest;" vertex="1" parent="V0HAKdZt5HSDC3kejw7x-1">
                    <mxGeometry y="320" width="300" height="26" as="geometry"/>
                </mxCell>
                <mxCell id="V0HAKdZt5HSDC3kejw7x-15" value="+ checkLayersForBuffer(type): type" style="text;strokeColor=none;fillColor=none;align=left;verticalAlign=top;spacingLeft=4;spacingRight=4;overflow=hidden;rotatable=0;points=[[0,0.5],[1,0.5]];portConstraint=eastwest;" vertex="1" parent="V0HAKdZt5HSDC3kejw7x-1">
                    <mxGeometry y="346" width="300" height="26" as="geometry"/>
                </mxCell>
                <mxCell id="V0HAKdZt5HSDC3kejw7x-16" value="+ buildOptionFormMessages(type): type" style="text;strokeColor=none;fillColor=none;align=left;verticalAlign=top;spacingLeft=4;spacingRight=4;overflow=hidden;rotatable=0;points=[[0,0.5],[1,0.5]];portConstraint=eastwest;" vertex="1" parent="V0HAKdZt5HSDC3kejw7x-1">
                    <mxGeometry y="372" width="300" height="26" as="geometry"/>
                </mxCell>
                <mxCell id="V0HAKdZt5HSDC3kejw7x-17" value="+ buildOptionForm(type): type" style="text;strokeColor=none;fillColor=none;align=left;verticalAlign=top;spacingLeft=4;spacingRight=4;overflow=hidden;rotatable=0;points=[[0,0.5],[1,0.5]];portConstraint=eastwest;" vertex="1" parent="V0HAKdZt5HSDC3kejw7x-1">
                    <mxGeometry y="398" width="300" height="26" as="geometry"/>
                </mxCell>
                <mxCell id="V0HAKdZt5HSDC3kejw7x-18" value="+ executeBuffer(type): type" style="text;strokeColor=none;fillColor=none;align=left;verticalAlign=top;spacingLeft=4;spacingRight=4;overflow=hidden;rotatable=0;points=[[0,0.5],[1,0.5]];portConstraint=eastwest;" vertex="1" parent="V0HAKdZt5HSDC3kejw7x-1">
                    <mxGeometry y="424" width="300" height="26" as="geometry"/>
                </mxCell>
                <mxCell id="V0HAKdZt5HSDC3kejw7x-19" value="+ executeGeoprocess(type): type" style="text;strokeColor=none;fillColor=none;align=left;verticalAlign=top;spacingLeft=4;spacingRight=4;overflow=hidden;rotatable=0;points=[[0,0.5],[1,0.5]];portConstraint=eastwest;" vertex="1" parent="V0HAKdZt5HSDC3kejw7x-1">
                    <mxGeometry y="450" width="300" height="26" as="geometry"/>
                </mxCell>
                <mxCell id="V0HAKdZt5HSDC3kejw7x-20" value="+ buildForm(type): type" style="text;strokeColor=none;fillColor=none;align=left;verticalAlign=top;spacingLeft=4;spacingRight=4;overflow=hidden;rotatable=0;points=[[0,0.5],[1,0.5]];portConstraint=eastwest;" vertex="1" parent="V0HAKdZt5HSDC3kejw7x-1">
                    <mxGeometry y="476" width="300" height="26" as="geometry"/>
                </mxCell>
                <mxCell id="V0HAKdZt5HSDC3kejw7x-21" value="+ getForm(type): type" style="text;strokeColor=none;fillColor=none;align=left;verticalAlign=top;spacingLeft=4;spacingRight=4;overflow=hidden;rotatable=0;points=[[0,0.5],[1,0.5]];portConstraint=eastwest;" vertex="1" parent="V0HAKdZt5HSDC3kejw7x-1">
                    <mxGeometry y="502" width="300" height="26" as="geometry"/>
                </mxCell>
                <mxCell id="V0HAKdZt5HSDC3kejw7x-22" value="+ elevationDiv(type): type" style="text;strokeColor=none;fillColor=none;align=left;verticalAlign=top;spacingLeft=4;spacingRight=4;overflow=hidden;rotatable=0;points=[[0,0.5],[1,0.5]];portConstraint=eastwest;" vertex="1" parent="V0HAKdZt5HSDC3kejw7x-1">
                    <mxGeometry y="528" width="300" height="26" as="geometry"/>
                </mxCell>
                <mxCell id="V0HAKdZt5HSDC3kejw7x-23" value="+ loadingBtn(type): type" style="text;strokeColor=none;fillColor=none;align=left;verticalAlign=top;spacingLeft=4;spacingRight=4;overflow=hidden;rotatable=0;points=[[0,0.5],[1,0.5]];portConstraint=eastwest;" vertex="1" parent="V0HAKdZt5HSDC3kejw7x-1">
                    <mxGeometry y="554" width="300" height="26" as="geometry"/>
                </mxCell>
                <mxCell id="V0HAKdZt5HSDC3kejw7x-24" value="+ updateLayerSelect(type): type" style="text;strokeColor=none;fillColor=none;align=left;verticalAlign=top;spacingLeft=4;spacingRight=4;overflow=hidden;rotatable=0;points=[[0,0.5],[1,0.5]];portConstraint=eastwest;" vertex="1" parent="V0HAKdZt5HSDC3kejw7x-1">
                    <mxGeometry y="580" width="300" height="26" as="geometry"/>
                </mxCell>
            </root>
        </mxGraphModel>
    </diagram>
</mxfile>